<?xml version="1.0" encoding="UTF-8"?>
<svg version="1.1" xmlns="http://www.w3.org/2000/svg" width="501" height="584">
<path d="M0 0 C165.33 0 330.66 0 501 0 C501 192.72 501 385.44 501 584 C335.67 584 170.34 584 0 584 C0 391.28 0 198.56 0 0 Z " fill="#F93400" transform="translate(0,0)"/>
<path d="M0 0 C165.33 0 330.66 0 501 0 C501 192.72 501 385.44 501 584 C335.67 584 170.34 584 0 584 C0 391.28 0 198.56 0 0 Z M169 48 C169 63.51 169 79.02 169 95 C166.03 95 163.06 95 160 95 C138.47977167 98.55165549 117.89094325 111.4482791 104.67724609 128.72998047 C93.55631443 144.32688231 86.79323633 161.76352225 86.90234375 180.9921875 C86.9037587 181.93812775 86.90517365 182.88406799 86.90663147 183.8586731 C86.91220516 186.86414829 86.9247528 189.86954753 86.9375 192.875 C86.9425184 194.91926975 86.94708071 196.96354068 86.95117188 199.0078125 C86.96216597 204.00523736 86.97941243 209.00260583 87 214 C89.31 214 91.62 214 94 214 C94 218.95 94 223.9 94 229 C91.69 229 89.38 229 87 229 C86.92979831 255.46959992 86.87695722 281.93918581 86.84456348 308.40886021 C86.82912014 320.7002582 86.80807916 332.99159821 86.77368164 345.28295898 C86.74370163 356.00094533 86.72440661 366.71888966 86.71773452 377.43691677 C86.71383681 383.10762576 86.70472972 388.77821462 86.68280983 394.44888496 C86.66230862 399.7963306 86.65619355 405.14360766 86.66067696 410.49108887 C86.65985782 412.44405473 86.65397401 414.39702678 86.64238358 416.34995842 C86.48611855 444.06051753 93.32019633 467.70745519 113 488 C113.53882812 488.61230469 114.07765625 489.22460938 114.6328125 489.85546875 C125.68686309 501.9927052 143.97452187 510.63047405 160 513 C162.97 513 165.94 513 169 513 C169 528.51 169 544.02 169 560 C203.98 560 238.96 560 275 560 C275 557.36 275 554.72 275 552 C279.62 552 284.24 552 289 552 C289 554.64 289 557.28 289 560 C304.18 560 319.36 560 335 560 C335 544.82 335 529.64 335 514 C337.97 513.67 340.94 513.34 344 513 C362.99327446 509.19600241 378.54535674 500.76937175 392 487 C392.79921875 486.22140625 393.5984375 485.4428125 394.421875 484.640625 C410.3306456 468.29299176 417.15133252 445.67352941 417.14717102 423.28138733 C417.15268605 421.67838804 417.15268605 421.67838804 417.1583125 420.04300493 C417.1693119 416.4675485 417.17318684 412.89212118 417.17700195 409.31665039 C417.18326948 406.75047718 417.18991654 404.18430487 417.19691467 401.61813354 C417.21662557 393.92198658 417.2267385 386.22583841 417.23564246 378.52967253 C417.24003423 374.89811678 417.24539872 371.26656247 417.25063133 367.63500786 C417.26763832 355.5504248 417.28213012 343.46584261 417.28938007 331.38124943 C417.29128971 328.24920208 417.29321008 325.11715474 417.29516602 321.98510742 C417.29564976 321.20673121 417.2961335 320.42835501 417.2966319 319.62639164 C417.30492351 307.0311068 417.33024807 294.43591718 417.36274669 281.84067387 C417.39589826 268.88591096 417.41383613 255.93119631 417.41702431 242.97639078 C417.41918195 235.7122843 417.42782043 228.4483167 417.45348549 221.18425179 C417.47759675 214.34451119 417.48096763 207.50502329 417.47072411 200.66524887 C417.47023054 198.16442853 417.47649771 195.6635956 417.49028015 193.16281319 C417.63845749 164.66620757 411.42820165 141.06424456 391 120 C390.46117187 119.38769531 389.92234375 118.77539062 389.3671875 118.14453125 C376.54873141 104.06999529 357.22243945 97.34537225 339 94 C337.68 94 336.36 94 335 94 C335 78.82 335 63.64 335 48 C280.22 48 225.44 48 169 48 Z " fill="#F6F6F6" transform="translate(0,0)"/>
<path d="M0 0 C54.78 0 109.56 0 166 0 C166 15.18 166 30.36 166 46 C168.97 46.33 171.94 46.66 175 47 C193.48977946 51.18636516 208.32370581 58.93572586 222 72 C222.61488281 72.54011719 223.22976563 73.08023438 223.86328125 73.63671875 C237.06006601 85.68068093 245.69737057 105.57808897 248 123 C248.14701806 126.53511213 248.14352084 130.06730124 248.14044189 133.60508728 C248.14489858 135.20786328 248.14489858 135.20786328 248.1494453 136.84301859 C248.1581176 140.42391812 248.15963933 144.00478416 248.16113281 147.58569336 C248.16576212 150.15334138 248.17078694 152.72098872 248.17617798 155.28863525 C248.18973941 162.26633557 248.19578308 169.24403013 248.20018864 176.22174144 C248.20295572 180.58418 248.20719401 184.94661635 248.21169281 189.30905342 C248.22388442 201.40217798 248.23418278 213.49530079 248.2375679 225.58843136 C248.23778747 226.36192896 248.23800703 227.13542656 248.23823325 227.93236348 C248.23845153 228.70765432 248.23866981 229.48294515 248.2388947 230.28172964 C248.23933816 231.85261468 248.23978472 233.42349972 248.24023438 234.99438477 C248.2404558 235.77358879 248.24067723 236.5527928 248.24090537 237.35560907 C248.24484832 249.9645473 248.26228741 262.57342755 248.2855939 275.18234342 C248.30936357 288.14724036 248.32177236 301.11210831 248.32293582 314.07702738 C248.32384962 321.34835472 248.32952695 328.61960658 248.34775543 335.89091301 C248.36485847 342.73717371 248.36636723 349.58328955 248.35761642 356.42956543 C248.35684866 358.93402553 248.36115412 361.43849346 248.37107468 363.94293404 C248.48120794 393.49377318 243.20266154 418.13718233 222 440 C221.19175781 440.91845703 221.19175781 440.91845703 220.3671875 441.85546875 C207.65403222 455.81438548 188.07934269 462.58154452 170 466 C168.68 466 167.36 466 166 466 C166 481.18 166 496.36 166 512 C150.82 512 135.64 512 120 512 C120 509.36 120 506.72 120 504 C115.38 504 110.76 504 106 504 C106 506.64 106 509.28 106 512 C71.02 512 36.04 512 0 512 C0 496.49 0 480.98 0 465 C-2.97 465 -5.94 465 -9 465 C-31.19442758 461.33707601 -52.45567032 447.75004327 -65.58203125 429.5390625 C-76.11312047 414.11510664 -82.19035253 396.08038567 -82.12025452 377.37562561 C-82.12110894 376.5325164 -82.12196337 375.68940719 -82.12284368 374.82074922 C-82.12448438 372.00946516 -82.11900029 369.19824141 -82.11352539 366.38696289 C-82.11324319 364.36625164 -82.1134019 362.34554029 -82.1139679 360.3248291 C-82.11425458 354.84813655 -82.10837863 349.37146594 -82.10139394 343.89477849 C-82.09513899 338.16792617 -82.0945549 332.44107334 -82.09336853 326.71421814 C-82.09026153 315.87361882 -82.08205664 305.0330296 -82.07201904 294.19243473 C-82.06083831 281.84909868 -82.05534251 269.50576215 -82.05032361 257.1624223 C-82.03987352 231.7749426 -82.02228628 206.38747187 -82 181 C-77.05 181 -72.1 181 -67 181 C-66.99761165 182.05060734 -66.99522329 183.10121468 -66.99276257 184.1836586 C-66.93390811 209.77432076 -66.8579885 235.36488923 -66.76428509 260.95544815 C-66.71936344 273.33096718 -66.67994035 285.70645766 -66.65356445 298.08203125 C-66.63055503 308.8714581 -66.597124 319.66079435 -66.55129844 330.4501493 C-66.52740606 336.16040617 -66.50865114 341.87057353 -66.50238609 347.58087921 C-66.49631727 352.96202758 -66.4762524 358.34294702 -66.44572449 363.72401047 C-66.43697306 365.69272392 -66.43321564 367.66146733 -66.43499184 369.63019943 C-66.44888418 392.14532949 -61.11990707 411.85810415 -45.34765625 428.68359375 C-29.07662907 444.73803487 -9.74324724 450.31982036 12.52856445 450.25878906 C14.19513094 450.26150278 15.86169624 450.26506584 17.52825928 450.26940918 C22.03461684 450.27849231 26.54088237 450.27500523 31.04724145 450.26865101 C35.77817539 450.26356733 40.50910174 450.26828926 45.24003601 450.27142334 C53.18632411 450.27505716 61.13257498 450.27028032 69.07885742 450.26074219 C78.24184546 450.24987002 87.40474439 450.25337658 96.56773025 450.264395 C104.45593979 450.27349796 112.34412264 450.27473814 120.23233575 450.26951766 C124.93417995 450.26641302 129.63598241 450.26594672 134.33782387 450.27259064 C138.76282502 450.27840697 143.18771243 450.27428947 147.61270142 450.26280212 C149.22828674 450.26017783 150.84388178 450.26088201 152.45946312 450.26532745 C164.41711008 450.29517316 176.05393472 449.97034924 187.0625 444.8125 C187.73877441 444.50352783 188.41504883 444.19455566 189.11181641 443.8762207 C208.0636778 435.00786571 220.34154709 421.45584912 228 402 C231.26434003 392.71023234 232.14900283 384.13661395 232.14717102 374.35058594 C232.15268605 372.75877896 232.15268605 372.75877896 232.1583125 371.13481426 C232.1693111 367.58466289 232.17318669 364.03454083 232.17700195 360.484375 C232.18326951 357.93628345 232.18991657 355.3881928 232.19691467 352.84010315 C232.21610951 345.19883534 232.22673792 337.55757269 232.23564246 329.91628695 C232.24003412 326.31100155 232.24539861 322.7057176 232.25063133 319.10043335 C232.26763752 307.10420538 232.28212977 295.10797828 232.28938007 283.11174011 C232.29128972 280.00271605 232.29321009 276.893692 232.29516602 273.78466797 C232.29564976 273.01201068 232.2961335 272.23935339 232.2966319 271.44328225 C232.30492522 258.9378529 232.33025307 246.43251942 232.36274669 233.92713189 C232.3958898 221.06616482 232.41383534 208.20524635 232.41702431 195.34423637 C232.41918263 188.13214032 232.42783138 180.92018411 232.45348549 173.70812988 C232.4775826 166.91845105 232.48097293 160.12906629 232.47072411 153.3393383 C232.47023023 150.85583599 232.47650658 148.37232105 232.49028015 145.88885689 C232.6132017 122.39947844 229.31495216 103.10601477 213 85 C212.44699219 84.36578125 211.89398438 83.7315625 211.32421875 83.078125 C199.54693164 70.37327113 180.69219033 62.52658385 163.50999451 61.86577892 C161.65737755 61.8593687 161.65737755 61.8593687 159.76733398 61.85282898 C159.07364904 61.84915229 158.3799641 61.8454756 157.66525841 61.8416875 C155.35886245 61.83074319 153.05251167 61.82682267 150.74609375 61.82299805 C149.08468994 61.81672628 147.42328752 61.81007886 145.7618866 61.80308533 C140.32043418 61.78212325 134.87898175 61.77168869 129.4375 61.76171875 C127.55727118 61.75766793 125.6770425 61.75355092 123.79681396 61.74936867 C114.95856752 61.73033241 106.12032933 61.71609941 97.28206635 61.7077567 C87.11311702 61.69799693 76.94438609 61.67170376 66.77551365 61.63125581 C58.89409746 61.60099305 51.01274352 61.58627814 43.13127041 61.58297569 C38.43424703 61.58063638 33.73745736 61.57182307 29.04049683 61.54651451 C24.61462126 61.52305079 20.18913029 61.51907317 15.76320839 61.52927589 C14.15048243 61.52976699 12.53773633 61.52357453 10.92506981 61.50971985 C-9.6008415 61.34343031 -27.46893136 67.03885887 -43 81 C-43.91652344 81.77730469 -43.91652344 81.77730469 -44.8515625 82.5703125 C-56.71988863 93.35477323 -64.81194441 110.53946834 -66.21379089 126.42222595 C-66.32286948 128.97117949 -66.38027883 131.51535635 -66.4140625 134.06640625 C-66.43342865 134.98590561 -66.4527948 135.90540497 -66.4727478 136.85276794 C-66.5319684 139.75592107 -66.57869633 142.6591151 -66.625 145.5625 C-66.66323285 147.54493805 -66.70228757 149.52736043 -66.7421875 151.50976562 C-66.83762178 156.33971472 -66.92186206 161.16974139 -67 166 C-71.95 166 -76.9 166 -82 166 C-82.1002128 160.16915685 -82.17209129 154.33883437 -82.21972656 148.50732422 C-82.23962139 146.53099821 -82.26674723 144.5547293 -82.30175781 142.57861328 C-82.74909167 116.64640645 -76.49506386 93.52626637 -58.1328125 74.19921875 C-57.07707031 73.11060547 -57.07707031 73.11060547 -56 72 C-55.46117188 71.38769531 -54.92234375 70.77539062 -54.3671875 70.14453125 C-43.31313691 58.0072948 -25.02547813 49.36952595 -9 47 C-6.03 47 -3.06 47 0 47 C0 31.49 0 15.98 0 0 Z " fill="#020101" transform="translate(169,48)"/>
<path d="M0 0 C44.22 0 88.44 0 134 0 C134 10.23 134 20.46 134 31 C124.43 31 114.86 31 105 31 C105 35.95 105 40.9 105 46 C104.67 46 104.34 46 104 46 C104 43.36 104 40.72 104 38 C99.38 38 94.76 38 90 38 C90 40.64 90 43.28 90 46 C89.67 46 89.34 46 89 46 C89 41.05 89 36.1 89 31 C59.63 31 30.26 31 0 31 C0 20.77 0 10.54 0 0 Z " fill="#56748C" transform="translate(185,514)"/>
<path d="M0 0 C44.22 0 88.44 0 134 0 C134 10.23 134 20.46 134 31 C89.78 31 45.56 31 0 31 C0 20.77 0 10.54 0 0 Z " fill="#57758D" transform="translate(185,63)"/>
<path d="M0 0 C37.29 0 74.58 0 113 0 C113 25.024518 107.4230269 46.27969762 89.71875 64.31640625 C88.37296875 65.64478516 88.37296875 65.64478516 87 67 C86.2471875 67.75152344 85.494375 68.50304687 84.71875 69.27734375 C76.83554783 76.71782985 68.03404877 81.55724196 57.82421875 84.94140625 C57.04604797 85.19955612 56.2678772 85.45770599 55.46612549 85.72367859 C46.53670174 88.59367564 37.43680488 90.47676277 28.25 92.3125 C26.55188153 92.66112788 24.85396373 93.01073459 23.15625 93.36132812 C16.78601986 94.66944043 10.42289564 95.97140218 4 97 C3.67 95.824375 3.34 94.64875 3 93.4375 C2.7215625 92.44556641 2.7215625 92.44556641 2.4375 91.43359375 C1.86847866 88.26841253 1.93777712 85.20836735 2 82 C10.63878056 79.75100659 19.29693854 77.70278555 28.02441406 75.82666016 C51.68600001 70.71620169 71.7142019 64.93323846 86.18359375 43.9453125 C92.06515048 34.40833665 94.42905734 26.14075152 97 15 C64.99 15 32.98 15 0 15 C0 10.05 0 5.1 0 0 Z " fill="#050100" transform="translate(199,177)"/>
<path d="M0 0 C4.29 0.99 8.58 1.98 13 3 C14.12698413 8.63492063 14.12698413 8.63492063 12.84765625 12.15234375 C12.57002441 12.92191406 12.29239258 13.69148438 12.00634766 14.484375 C11.69487793 15.29390625 11.3834082 16.1034375 11.0625 16.9375 C10.7432959 17.77925781 10.4240918 18.62101562 10.09521484 19.48828125 C3.28359492 36.9027384 -7.67361074 50.12197524 -21 63 C-19.59155282 66.21524305 -17.89655214 68.32183868 -15.375 70.75 C-14.74335938 71.36359375 -14.11171875 71.9771875 -13.4609375 72.609375 C-12.97882813 73.06828125 -12.49671875 73.5271875 -12 74 C-13.40844718 77.21524305 -15.10344786 79.32183868 -17.625 81.75 C-18.25664062 82.36359375 -18.88828125 82.9771875 -19.5390625 83.609375 C-20.02117187 84.06828125 -20.50328125 84.5271875 -21 85 C-24.68069887 83.46356148 -26.98775204 81.21849055 -29.75 78.375 C-30.54921875 77.55773437 -31.3484375 76.74046875 -32.171875 75.8984375 C-32.77515625 75.27195312 -33.3784375 74.64546875 -34 74 C-38.1707211 75.30761092 -42.01163393 76.89756661 -45.9375 78.8125 C-60.07735461 85.36550349 -78.18849137 92 -94 92 C-94.33 90.824375 -94.66 89.64875 -95 88.4375 C-95.2784375 87.44556641 -95.2784375 87.44556641 -95.5625 86.43359375 C-96.13082462 83.27228806 -96.02618492 80.20601644 -96 77 C-94.75464478 76.72905518 -94.75464478 76.72905518 -93.48413086 76.45263672 C-68.96195805 71.91129618 -68.96195805 71.91129618 -47 61 C-52.61 55.39 -58.22 49.78 -64 44 C-57.25 36.125 -57.25 36.125 -54 33 C-50.80636047 34.37859928 -49.00638231 35.88108828 -46.8125 38.5625 C-42.80310304 43.31276379 -38.43793766 47.65263249 -34 52 C-15.4983738 41.45948662 -5.98937523 19.40557573 0 0 Z " fill="#040000" transform="translate(297,272)"/>
<path d="M0 0 C4.95 0 9.9 0 15 0 C15.71818555 15.32129183 11.80951433 28.46432356 5 42 C4.47535156 43.06089844 3.95070313 44.12179687 3.41015625 45.21484375 C-8.3119529 67.02541848 -29.18996432 80.88723486 -52.390625 88.03515625 C-66.44680148 91.79259736 -80.55834214 91.20404226 -95 91 C-95 85.72 -95 80.44 -95 75 C-92.93621094 74.97421875 -90.87242187 74.9484375 -88.74609375 74.921875 C-62.59015989 74.4921351 -40.51899816 70.77004471 -20.8984375 51.98828125 C-7.03716194 37.51154364 -2.05149414 19.3959446 0 0 Z " fill="#060100" transform="translate(297,371)"/>
<path d="M0 0 C24.42 0 48.84 0 74 0 C74 4.62 74 9.24 74 14 C49.58 14 25.16 14 0 14 C0 9.38 0 4.76 0 0 Z " fill="#000000" transform="translate(215,147)"/>
<path d="M0 0 C4.95 0 9.9 0 15 0 C15 10.23 15 20.46 15 31 C10.05 31 5.1 31 0 31 C0 20.77 0 10.54 0 0 Z " fill="#4B6276" transform="translate(185,63)"/>
<path d="M0 0 C5.50479781 3.82485951 10.20366973 8.07822353 14.87890625 12.875 C17.45241282 15.45324599 20.15039006 17.73492544 23 20 C22.06558465 21.27310312 21.12732889 22.543388 20.1875 23.8125 C19.66542969 24.52019531 19.14335937 25.22789062 18.60546875 25.95703125 C17.16871123 27.78531393 15.68184237 29.39896688 14 31 C9.394062 29.56999759 6.92508778 27.21083704 3.625 23.75 C-0.40633394 19.58221881 -4.5198662 15.68366557 -9 12 C-7.55575365 8.76138697 -5.74227753 6.38030837 -3.375 3.75 C-2.74335938 3.04359375 -2.11171875 2.3371875 -1.4609375 1.609375 C-0.97882813 1.07828125 -0.49671875 0.5471875 0 0 Z " fill="#060100" transform="translate(234,381)"/>
<path d="M0 0 C4.62 0 9.24 0 14 0 C14 10.23 14 20.46 14 31 C9.38 31 4.76 31 0 31 C0 20.77 0 10.54 0 0 Z " fill="#4B6276" transform="translate(185,514)"/>
<path d="M0 0 C4.95 0 9.9 0 15 0 C15 5.28 15 10.56 15 16 C10.05 16 5.1 16 0 16 C0 10.72 0 5.44 0 0 Z " fill="#FEF2EF" transform="translate(162,146)"/>
<path d="M0 0 C4.95 0 9.9 0 15 0 C15 5.28 15 10.56 15 16 C10.05 16 5.1 16 0 16 C0 10.72 0 5.44 0 0 Z " fill="#FEF2EF" transform="translate(132,146)"/>
</svg>
